 <svg version="1.0" xmlns="http://www.w3.org/2000/svg" width="700.000000pt" height="700.000000pt" viewBox="0 0 700.000000 700.000000" preserveAspectRatio="xMidYMid meet">
<metadata>
Created by potrace 1.12, written by Peter Selinger 2001-2015
</metadata>
<g transform="translate(0.000000,700.000000) scale(0.100000,-0.100000)" fill="#000000" stroke="none">
<path d="M580 6713 c-37 -12 -87 -34 -132 -59 -33 -18 -128 -112 -128 -127 0
-6 -6 -18 -14 -26 -8 -9 -24 -43 -35 -76 l-21 -59 0 -2866 0 -2866 21 -59 c11
-33 27 -67 35 -76 8 -8 14 -20 14 -26 0 -15 95 -109 128 -127 15 -8 38 -20 52
-27 14 -6 34 -16 45 -23 15 -8 766 -12 2910 -14 l2890 -2 60 21 c120 44 239
169 273 285 17 60 17 5768 0 5828 -12 43 -60 123 -100 167 -39 44 -111 97
-142 105 -16 4 -41 13 -55 20 -22 12 -518 14 -2906 13 -1584 0 -2887 -3 -2895
-6z m2134 -322 c34 -28 126 -117 204 -198 l142 -148 0 -82 c0 -88 -14 -169
-36 -211 -8 -15 -14 -32 -14 -38 0 -7 -31 -46 -70 -87 -38 -41 -70 -77 -70
-80 0 -3 -13 -26 -30 -50 -37 -56 -53 -115 -53 -197 0 -74 9 -114 46 -191 35
-73 90 -124 188 -173 73 -36 84 -45 90 -74 9 -44 26 -62 60 -62 31 0 39 9 48
54 5 21 16 35 36 45 17 8 38 18 47 23 10 4 24 8 32 8 7 0 42 19 76 42 90 60
143 146 164 264 10 57 12 93 5 105 -5 10 -9 31 -9 46 0 16 -7 38 -15 49 -8 10
-15 25 -15 33 0 8 -15 32 -33 55 -19 23 -36 48 -40 56 -4 8 -18 33 -32 55 -13
22 -30 51 -36 65 -15 34 -24 110 -12 110 27 0 443 -456 443 -485 0 -4 14 -24
30 -45 17 -21 30 -42 30 -48 0 -5 9 -21 20 -35 20 -25 150 -279 150 -293 0 -3
6 -20 14 -37 26 -61 55 -152 62 -197 4 -25 11 -50 16 -56 4 -6 13 -60 19 -120
6 -60 15 -125 21 -144 9 -34 6 -188 -6 -280 -4 -25 -11 -88 -17 -140 -6 -52
-14 -99 -19 -105 -4 -5 -11 -28 -15 -50 -4 -22 -10 -44 -15 -50 -4 -5 -13 -35
-20 -65 -7 -30 -17 -62 -21 -70 -4 -8 -16 -35 -27 -60 -29 -67 -100 -210 -128
-255 -13 -22 -29 -51 -36 -65 -7 -14 -28 -45 -46 -70 l-34 -45 7 89 c4 49 11
97 16 105 15 27 31 268 31 461 0 211 -8 310 -25 310 -7 0 -25 -26 -41 -58 -62
-124 -91 -167 -106 -157 -4 3 -11 49 -14 103 -4 54 -12 116 -17 138 -6 21 -14
59 -20 83 -5 24 -13 49 -17 55 -5 6 -14 30 -21 54 -7 24 -21 58 -32 75 -10 18
-26 48 -35 67 -9 19 -38 60 -65 91 -27 31 -49 60 -49 65 0 12 -72 84 -84 84
-5 0 -18 8 -29 18 -19 17 -19 16 -16 -68 4 -121 1 -180 -12 -180 -6 0 -33 19
-60 41 l-49 42 7 102 c6 101 0 155 -16 155 -16 0 -29 -49 -37 -129 -6 -77 -15
-103 -28 -82 -8 13 -144 77 -191 91 -22 6 -49 15 -60 20 -11 5 -42 14 -70 19
-27 5 -68 14 -90 20 -22 6 -104 14 -183 17 -78 4 -145 11 -148 16 -7 12 -231
10 -239 -2 -4 -6 -61 -10 -138 -10 -174 0 -267 -9 -267 -26 0 -17 74 -75 125
-98 83 -38 101 -45 130 -52 17 -3 48 -12 70 -19 22 -7 69 -16 105 -20 35 -4
71 -11 80 -16 8 -5 51 -13 95 -18 179 -23 324 -46 331 -53 4 -5 20 -8 34 -8
41 0 159 -47 201 -81 20 -16 41 -29 45 -29 11 0 114 -102 114 -113 0 -5 15
-30 34 -56 19 -25 44 -77 56 -116 12 -38 29 -90 37 -115 8 -25 19 -65 24 -90
6 -25 15 -58 20 -75 6 -16 13 -154 16 -305 5 -274 -5 -520 -28 -678 -11 -77
-14 -85 -48 -114 -37 -31 -95 -68 -141 -90 -14 -6 -32 -17 -40 -24 -19 -15
-214 -114 -225 -114 -5 0 -29 -9 -54 -21 -25 -11 -59 -26 -76 -34 -28 -12
-137 -46 -195 -60 -14 -3 -34 -10 -45 -15 -37 -16 -200 -49 -275 -56 -41 -3
-81 -11 -88 -17 -17 -14 -385 -14 -414 0 -13 6 -50 15 -83 21 -223 36 -379
184 -393 373 -3 39 0 80 6 92 5 12 15 48 22 79 16 81 77 194 149 276 25 30 51
63 58 74 14 26 175 188 185 188 5 0 52 39 106 86 53 47 104 89 112 92 8 3 40
27 71 54 31 26 60 48 64 48 3 0 40 27 80 60 40 33 77 60 81 60 4 0 33 23 65
50 32 28 61 50 64 50 14 0 176 143 229 201 29 32 65 84 81 116 15 32 32 66 36
75 5 10 12 41 15 70 8 73 -9 87 -110 95 -42 3 -79 10 -82 14 -3 5 -24 9 -47 9
-23 1 -60 5 -82 10 -22 5 -74 16 -115 25 -41 8 -84 19 -95 24 -11 5 -47 18
-80 31 -55 20 -112 47 -196 92 -45 24 -192 151 -233 202 -46 55 -49 101 -8
137 32 29 67 49 84 49 7 0 25 6 40 14 15 8 40 17 57 21 16 3 67 25 113 49 111
57 126 66 175 104 23 17 45 32 50 32 26 1 433 407 433 434 0 4 19 31 42 59 70
83 68 72 68 363 0 144 4 265 9 268 4 3 11 24 14 47 6 43 30 79 55 79 8 0 42
-22 76 -49z m563 -892 c41 -15 111 -87 124 -128 7 -19 12 -58 12 -86 0 -28 -5
-67 -12 -86 -13 -41 -83 -113 -124 -128 -36 -14 -148 -14 -184 0 -38 14 -102
77 -119 116 -17 38 -18 150 -3 190 13 37 76 102 114 119 36 16 153 18 192 3z
m1775 -2706 c7 -5 40 -15 73 -22 33 -6 107 -34 165 -63 94 -47 116 -63 217
-162 61 -61 116 -122 122 -136 6 -14 22 -43 36 -65 14 -22 32 -56 41 -75 51
-109 64 -139 74 -180 7 -25 16 -49 20 -55 5 -5 11 -28 15 -50 4 -22 11 -44 15
-50 5 -5 13 -55 20 -110 6 -55 16 -116 22 -136 5 -19 8 -62 5 -95 -8 -91 -37
-267 -47 -289 -5 -11 -12 -36 -16 -55 -3 -19 -10 -39 -14 -45 -4 -5 -11 -26
-15 -45 -4 -19 -13 -46 -20 -60 -7 -14 -25 -54 -41 -90 -16 -36 -44 -86 -61
-111 -18 -26 -33 -50 -33 -54 0 -4 -20 -31 -45 -59 -25 -29 -45 -57 -45 -62
-1 -5 -28 -38 -60 -74 l-59 -65 6 40 c3 22 11 46 17 54 6 7 12 72 14 147 4
111 2 138 -12 159 -9 13 -16 31 -16 39 0 23 -84 109 -131 135 -101 54 -151 63
-344 62 -99 0 -205 -5 -235 -11 -30 -6 -82 -15 -115 -21 -33 -5 -67 -13 -75
-16 -8 -4 -49 -14 -90 -24 -146 -34 -175 -41 -185 -49 -5 -4 -38 -13 -73 -20
-34 -7 -65 -17 -68 -21 -3 -5 -13 -9 -22 -9 -9 0 -29 -6 -43 -14 -14 -7 -50
-19 -80 -26 -30 -7 -61 -16 -69 -20 -67 -31 -90 -40 -127 -50 -23 -6 -45 -14
-47 -19 -3 -5 -20 -11 -38 -15 -18 -3 -48 -13 -65 -21 -32 -14 -73 -32 -138
-60 -64 -26 -141 -54 -170 -61 -16 -4 -34 -10 -40 -14 -5 -4 -34 -13 -63 -20
-28 -6 -55 -16 -58 -21 -3 -5 -17 -9 -32 -9 -15 0 -39 -6 -54 -14 -14 -8 -50
-17 -79 -21 -30 -4 -70 -13 -90 -20 -21 -8 -75 -17 -121 -20 -45 -4 -89 -12
-96 -18 -17 -14 -436 -14 -454 0 -7 6 -35 13 -63 17 -56 7 -185 45 -199 58 -6
4 -16 8 -24 8 -33 0 -203 94 -266 147 -38 32 -77 63 -87 69 -30 17 -59 46 -59
59 0 6 -14 24 -31 41 -37 34 -105 122 -135 173 -53 89 -144 281 -144 303 0 8
-6 22 -14 33 -7 11 -17 36 -20 55 -4 19 -11 44 -16 55 -14 30 -40 141 -53 225
-7 41 -15 80 -18 85 -4 6 -9 53 -13 105 -4 52 -9 115 -13 140 l-6 45 27 -31
c14 -18 26 -37 26 -43 0 -15 189 -205 221 -222 39 -21 161 -81 184 -90 19 -8
58 -18 155 -41 58 -13 410 -13 475 1 28 5 75 15 105 21 30 6 64 15 75 20 11 5
39 12 62 15 39 6 155 43 178 57 6 3 26 9 45 13 19 4 46 13 60 20 52 25 96 44
120 50 25 7 404 193 489 241 24 13 59 35 77 49 18 14 37 25 42 25 5 0 29 15
53 33 24 18 55 38 69 45 26 12 35 18 110 67 58 38 317 166 395 195 33 13 69
26 80 30 58 22 185 60 199 60 9 0 24 4 34 10 15 9 99 27 237 50 70 12 450 7
467 -7z"></path>
<path d="M2342 5204 c-17 -12 -22 -24 -20 -47 2 -27 11 -36 48 -54 24 -13 60
-23 80 -23 20 0 56 10 80 23 37 18 46 27 48 54 5 49 -24 63 -128 63 -62 0 -92
-4 -108 -16z"></path>
<path d="M5031 2437 c-10 -12 -1 -27 47 -82 52 -58 152 -226 152 -255 0 -6
-28 -10 -63 -10 -35 0 -67 -3 -71 -7 -4 -5 -44 -13 -89 -19 -97 -13 -227 -45
-227 -55 0 -4 55 -58 123 -120 67 -62 130 -120 140 -129 17 -16 16 -17 -15
-32 -196 -94 -251 -124 -325 -180 -35 -27 -66 -48 -70 -48 -12 -1 -77 -59 -72
-64 7 -8 238 14 275 25 40 12 199 12 238 0 17 -6 65 -14 106 -20 152 -20 291
-122 363 -265 21 -41 42 -78 47 -81 14 -8 27 23 40 95 7 36 16 74 21 85 10 21
30 218 31 300 1 69 -22 288 -32 300 -4 6 -11 28 -15 50 -10 56 -51 154 -105
254 -24 44 -135 157 -175 178 -88 47 -122 62 -140 63 -12 0 -25 4 -30 9 -6 5
-40 12 -76 15 -51 6 -68 4 -78 -7z"></path>
</g>
</svg>