 <svg version="1.0" xmlns="http://www.w3.org/2000/svg" width="500px" height="500px" viewBox="0 0 500.000000 500.000000" preserveAspectRatio="xMidYMid meet">
<metadata>
Created by potrace 1.12, written by Peter Selinger 2001-2015
</metadata>
<g transform="translate(0.000000,700.000000) scale(0.100000,-0.100000)" fill="#FFF" stroke="none">
<path  d="M3191 6481 c-19 -21 -34 -56 -51 -123 -24 -92 -24 -98 -21 -544 l3
-450 -58 -85 c-261 -381 -671 -800 -1016 -1038 -190 -132 -452 -259 -588 -286
-61 -13 -183 -78 -227 -122 -40 -40 -43 -46 -43 -98 0 -37 7 -70 21 -98 45
-87 268 -291 449 -409 118 -77 340 -174 525 -231 170 -52 495 -113 704 -132
41 -4 97 -15 125 -24 69 -22 80 -46 66 -138 -6 -37 -15 -72 -19 -78 -5 -5 -12
-26 -16 -45 -10 -49 -90 -202 -138 -264 -22 -28 -69 -82 -106 -120 -61 -63
-394 -329 -662 -529 -725 -540 -1015 -795 -1250 -1097 -94 -121 -99 -128 -99
-139 0 -8 493 -11 1754 -11 l1754 0 7 162 c4 90 5 366 3 613 -4 367 -8 469
-23 555 -18 110 -38 185 -60 235 -23 51 -53 147 -64 210 -13 69 -78 208 -148
315 -117 179 -287 317 -495 403 -84 35 -221 65 -465 103 -824 127 -963 159
-1222 286 -111 54 -219 134 -203 150 19 19 587 48 932 48 252 -1 313 -4 560
-30 368 -38 710 -145 947 -296 28 -18 54 -30 57 -27 3 4 6 76 6 161 0 121 3
161 16 188 45 94 57 35 44 -204 l-11 -195 33 -26 c18 -13 64 -55 102 -93 38
-37 73 -68 77 -68 23 0 43 202 35 352 -4 70 -3 129 2 132 9 6 194 -179 254
-254 101 -126 222 -341 277 -492 67 -186 110 -408 118 -615 3 -84 9 -153 14
-153 11 0 81 87 128 160 24 36 63 109 89 163 26 53 50 97 53 97 12 0 18 -41
30 -191 13 -163 6 -713 -11 -844 -6 -44 -17 -134 -25 -200 -20 -165 -52 -389
-65 -454 -12 -62 0 -87 23 -50 19 30 129 211 189 309 66 107 83 139 156 285
62 124 152 330 152 348 0 5 6 23 14 40 39 89 105 336 140 522 72 381 53 920
-44 1287 -10 40 -26 100 -35 133 -15 55 -36 121 -55 170 -74 192 -104 262
-162 380 -208 416 -469 777 -803 1110 -141 140 -333 310 -342 301 -8 -8 15
-119 44 -205 29 -85 104 -219 173 -306 66 -84 114 -176 140 -270 19 -68 22
-96 17 -200 -8 -192 -76 -347 -204 -466 -86 -80 -164 -125 -300 -170 -50 -17
-98 -38 -106 -47 -8 -10 -17 -39 -20 -67 -3 -34 -12 -55 -27 -67 -24 -20 -71
-24 -100 -8 -22 12 -40 61 -40 110 0 47 -14 59 -120 99 -208 81 -344 223 -419
436 -21 60 -24 89 -25 205 -1 117 2 144 22 203 44 127 105 221 199 307 173
158 254 363 269 676 l7 139 -78 65 c-42 35 -109 105 -148 155 -124 158 -310
329 -477 439 -67 44 -102 46 -139 7z m-139 -2140 c80 -25 125 -104 80 -144
-22 -20 -81 -45 -147 -63 -60 -17 -123 -6 -206 35 -148 72 -36 198 166 187 39
-3 87 -9 107 -15z"></path>
<path d="M4120 4885 c-83 -24 -139 -55 -196 -110 -58 -58 -95 -123 -118 -212
-20 -77 -20 -108 1 -191 81 -322 465 -439 705 -214 151 141 180 355 74 537
-42 71 -140 149 -228 180 -64 23 -173 28 -238 10z"></path>
</g>
</svg>